<svg width="215" height="60" xmlns="http://www.w3.org/2000/svg"><path stroke="null" d="M36.723 16.821H17.927v2.116h8.53v22.23h2.151v-22.23h8.115V16.82zm4.503 24.31h2.185V16.753h-2.185v24.38zm23.23-.034h3.502l-15.501-12.38 15.501-11.93h-3.502L51.139 27.399V16.787h-2.185v24.31h2.185V30.485l13.317 10.612zm23.368-22.16-15.64 22.195h19.559v-1.734h-15.64l15.64-22.611H72.6v2.15h15.224zm21.843-2.116h-13.04v24.38h2.15V28.994h10.89q2.635 0 4.37-1.734t1.733-4.335q0-2.358-1.734-4.196-1.838-1.908-4.37-1.908zm0 10.023h-10.89V18.97h10.89q1.595 0 2.809 1.145 1.144 1.214 1.144 2.809 0 1.63-1.144 2.774-1.214 1.145-2.81 1.145zm19.38-10.161q-3.884 0-6.52 2.809-2.6 2.774-2.6 6.762v14.843h2.184v-10.89h13.942v10.89h2.184V26.254q0-3.988-2.6-6.762-2.706-2.81-6.59-2.81zm7.006 11.375H122.11v-1.804q0-2.982 2.012-5.167 2.046-2.22 4.924-2.22t4.994 2.22q2.012 2.185 2.012 5.167v1.804zm7.623 13.074h2.185v-24.38h-2.185v24.38zm7.555-.035h2.15V26.393q0-2.913 2.22-5.202 2.22-2.22 5.132-2.22t5.202 2.22q2.22 2.289 2.22 5.202v14.704h2.15V26.393q0-3.954-2.81-6.763t-6.762-2.809q-3.884 0-6.693 2.81t-2.809 6.762v14.704zm42.096-24.276H174.53v2.116h8.531v22.23h2.15v-22.23h8.116V16.82z" fill="#"/></svg>